<?xml version="1.0" standalone="no"?>
<!DOCTYPE svg PUBLIC "-//W3C//DTD SVG 20010904//EN"
 "http://www.w3.org/TR/2001/REC-SVG-20010904/DTD/svg10.dtd">
<svg version="1.0" xmlns="http://www.w3.org/2000/svg"
 width="1000.000000pt" height="1000.000000pt" viewBox="0 0 1000.000000 1000.000000"
 preserveAspectRatio="xMidYMid meet">
<metadata>
Created by potrace 1.14, written by Peter Selinger 2001-2017
</metadata>
<g transform="translate(0.000000,1000.000000) scale(0.100000,-0.100000)"
fill="#000000" stroke="none">
<path d="M6362 9583 c-110 -54 -251 -260 -321 -468 -16 -47 -34 -91 -40 -99
-25 -30 -206 -139 -324 -196 -140 -67 -258 -108 -407 -142 -141 -31 -446 -33
-580 -4 -157 34 -311 97 -425 172 -51 34 -52 36 -73 122 -41 163 -196 425
-291 489 -50 33 -105 31 -142 -6 -24 -25 -29 -37 -29 -80 0 -144 152 -372 356
-532 l61 -48 -18 -133 c-29 -224 -68 -360 -145 -508 -127 -248 -341 -355 -553
-278 -63 22 -65 24 -82 75 -44 130 -129 243 -184 243 -33 0 -65 -33 -65 -68 0
-42 81 -202 126 -247 l39 -40 -1 -145 c-1 -224 -40 -346 -145 -451 -100 -100
-229 -158 -405 -181 l-99 -14 0 -29 0 -30 92 -3 c172 -5 323 57 454 187 62 62
85 93 122 171 55 113 73 180 88 322 12 105 12 106 35 97 13 -4 53 -13 88 -20
225 -39 479 119 600 375 58 122 116 359 131 534 4 45 10 81 14 80 3 -2 58 -29
121 -60 242 -120 397 -153 675 -145 310 10 554 81 838 245 60 35 87 46 82 34
-14 -36 -18 -211 -6 -274 27 -138 132 -273 268 -346 188 -99 439 -95 656 11
61 30 86 38 83 27 -35 -119 -40 -153 -39 -285 0 -217 43 -375 143 -527 54 -82
141 -168 170 -168 10 0 22 9 25 20 5 15 -7 35 -50 83 -61 68 -126 189 -151
282 -22 83 -29 268 -14 363 27 171 109 344 237 504 40 50 73 98 73 107 0 31
-30 61 -61 61 -44 0 -58 -10 -129 -95 -127 -152 -341 -293 -500 -330 -84 -19
-220 -19 -295 0 -166 44 -288 165 -325 324 -14 61 -9 210 10 284 11 40 22 54
79 99 186 145 342 353 382 511 27 110 -51 178 -149 130z m8 -157 c0 -22 -93
-157 -149 -216 l-52 -55 22 45 c28 58 71 122 126 188 48 56 53 60 53 38z
m-2385 -231 c29 -38 70 -104 90 -145 37 -74 37 -75 10 -50 -61 55 -226 303
-225 336 1 12 61 -56 125 -141z"/>
<path d="M5295 7953 c-66 -9 -195 -47 -275 -80 -323 -133 -668 -426 -952 -810
-363 -489 -566 -1085 -661 -1938 l-12 -110 -140 -6 c-619 -29 -983 -273 -1149
-774 -34 -102 -71 -287 -87 -435 -19 -174 -14 -608 11 -985 12 -181 21 -427
22 -545 0 -149 4 -217 12 -222 6 -4 23 -8 39 -8 36 0 42 15 68 170 31 184 35
442 14 821 -28 493 -14 796 46 1034 104 410 283 623 615 734 267 89 587 108
837 50 216 -51 414 -132 927 -379 162 -78 377 -180 478 -225 271 -123 386
-196 491 -311 68 -74 105 -128 146 -217 57 -120 78 -213 78 -357 0 -152 -21
-241 -89 -379 -38 -77 -62 -109 -128 -175 -44 -45 -109 -98 -144 -118 -88 -51
-257 -104 -392 -124 -155 -22 -442 -15 -578 15 -279 62 -489 173 -688 364
l-76 72 26 75 c47 143 59 228 53 399 -6 180 -24 261 -86 387 -76 152 -166 227
-276 228 -87 1 -148 -37 -190 -119 -28 -56 -30 -65 -29 -174 2 -234 106 -548
269 -810 57 -92 57 -94 42 -125 -31 -65 -146 -214 -249 -322 -62 -65 -108
-122 -108 -133 0 -19 43 -61 62 -61 32 0 249 246 337 383 24 37 46 67 48 67 3
0 39 -32 80 -70 93 -87 211 -166 334 -224 90 -43 251 -96 290 -96 23 0 23 -9
4 -97 -17 -81 -44 -163 -74 -221 -42 -82 -135 -218 -183 -268 -32 -33 -49 -58
-46 -70 8 -42 38 -24 146 83 95 95 114 119 155 203 48 99 81 206 92 300 l7 55
141 -9 c245 -15 548 13 742 69 571 166 872 772 647 1302 -93 218 -252 396
-472 527 l-83 49 6 96 c6 101 31 209 68 300 21 49 21 56 8 80 -21 38 -63 50
-90 25 -48 -43 -131 -254 -144 -366 -4 -32 -8 -58 -10 -58 -1 0 -22 9 -46 19
-490 214 -779 339 -857 370 -210 84 -426 144 -627 176 -55 9 -101 18 -104 20
-6 6 17 228 39 380 156 1069 594 1846 1268 2252 216 130 450 190 633 163 312
-45 525 -255 631 -620 46 -158 62 -303 62 -555 1 -213 -2 -251 -22 -344 -51
-233 -115 -386 -241 -572 -283 -422 -586 -629 -922 -629 -312 0 -533 174 -609
480 -43 175 -36 475 16 651 13 43 20 52 62 73 77 39 210 143 302 235 93 94
146 180 156 254 6 42 4 49 -25 78 -29 29 -36 31 -85 27 -163 -14 -358 -212
-456 -464 -17 -43 -35 -89 -40 -100 -6 -15 -36 -32 -94 -55 -88 -35 -107 -52
-83 -77 13 -12 23 -12 77 2 35 9 65 15 67 12 2 -2 -3 -53 -12 -112 -23 -149
-23 -401 -1 -519 22 -115 71 -244 120 -317 89 -135 237 -237 406 -279 121 -31
335 -24 465 15 286 86 565 322 791 671 78 121 205 371 238 471 103 312 97 697
-19 1051 -138 421 -399 702 -715 769 -60 13 -235 17 -305 7z m-415 -1178 c22
-26 -33 -119 -124 -211 -81 -81 -238 -194 -244 -175 -4 13 52 124 105 203 47
72 125 148 182 178 44 23 65 25 81 5z m-1407 -2769 c76 -31 143 -137 194 -303
24 -78 26 -104 26 -233 0 -126 -4 -158 -27 -245 -15 -55 -31 -103 -35 -108
-13 -13 -111 134 -171 258 -153 315 -179 549 -71 622 40 27 42 27 84 9z"/>
<path d="M6785 6134 c-130 -21 -282 -84 -291 -120 -9 -36 -1 -57 28 -73 24
-14 31 -13 94 17 91 41 141 51 249 52 280 0 540 -165 665 -424 157 -323 139
-680 -55 -1066 -104 -207 -238 -385 -426 -565 -161 -154 -387 -296 -565 -355
-109 -36 -212 -87 -224 -110 -17 -31 -4 -69 25 -76 38 -9 193 12 265 36 101
35 236 102 340 170 122 80 173 122 293 239 153 149 259 285 367 471 l58 101
46 -53 c103 -118 166 -303 166 -488 0 -167 -38 -306 -138 -505 -129 -260 -307
-478 -547 -670 -321 -258 -771 -450 -1125 -480 -154 -13 -331 25 -423 91 -52
37 -83 41 -101 11 -9 -16 -3 -26 44 -70 179 -168 497 -204 870 -100 378 106
747 328 1047 630 l142 143 21 -57 c57 -153 72 -354 37 -497 -63 -251 -236
-485 -483 -649 -499 -331 -1083 -253 -1236 165 -26 72 -40 85 -75 69 -23 -11
-25 -16 -20 -57 7 -62 75 -197 132 -262 57 -64 150 -131 239 -173 l66 -31 -59
-67 c-83 -93 -215 -219 -288 -274 -219 -166 -541 -314 -853 -391 -244 -60
-395 -77 -741 -85 -237 -5 -310 -9 -322 -20 -23 -18 -22 -68 1 -75 99 -31 356
-48 554 -35 672 42 1267 299 1658 716 47 50 101 116 120 146 24 38 40 54 50
51 8 -3 65 -8 125 -11 184 -9 345 28 555 128 330 157 515 321 640 566 82 160
114 297 114 483 -1 187 -34 337 -98 443 l-35 57 56 78 c69 96 156 267 192 381
40 120 55 218 54 346 -1 254 -100 469 -274 599 l-66 49 25 61 c13 34 37 111
53 172 159 629 -106 1199 -624 1344 -71 20 -258 34 -322 24z"/>
</g>
</svg>
